<?xml version="1.0" standalone="no"?>
<!DOCTYPE svg PUBLIC "-//W3C//DTD SVG 1.1//EN" "http://www.w3.org/Graphics/SVG/1.1/DTD/svg11.dtd" >
<svg xmlns="http://www.w3.org/2000/svg">
<metadata></metadata>
<defs>
<font id="polentical_neonregular" horiz-adv-x="1700" >
<font-face units-per-em="2048" ascent="1638" descent="-410" />
<missing-glyph horiz-adv-x="800" />
<glyph horiz-adv-x="0" />
<glyph horiz-adv-x="682" />
<glyph unicode=" "  horiz-adv-x="800" />
<glyph unicode="&#x09;" horiz-adv-x="800" />
<glyph unicode="&#xa0;" horiz-adv-x="800" />
<glyph unicode="!" horiz-adv-x="400" d="M100 0v200h200v-200h-200zM100 400v1000h200v-1000h-200z" />
<glyph unicode="&#x22;" horiz-adv-x="800" d="M100 900v500h200v-450zM500 900v500h200v-450z" />
<glyph unicode="#" horiz-adv-x="1900" d="M100 300v200h242l115 400h-357v200h414l86 300h200l-86 -300h700l86 300h200l-86 -300h186v-200h-243l-115 -400h358v-200h-415l-85 -300h-200l85 300h-700l-85 -300h-200l85 300h-185zM542 500h700l115 400h-700z" />
<glyph unicode="$" d="M100 200h650v400h-400l-250 250v300l250 250h400v200h200v-200h550l100 -200h-650v-400h400l250 -250v-300l-250 -250h-400v-200h-200v200h-550zM300 900l100 -100h350v400h-350l-100 -100v-200zM950 200h350l100 100v200l-100 100h-350v-400z" />
<glyph unicode="%" horiz-adv-x="2100" d="M100 850v300l250 250h300l250 -250v-300l-250 -250h-300zM300 0l1250 1400h250l-1250 -1400h-250zM300 900l100 -100h200l100 100v200l-100 100h-200l-100 -100v-200zM1200 250v300l250 250h300l250 -250v-300l-250 -250h-300zM1400 300l100 -100h200l100 100v200 l-100 100h-200l-100 -100v-200z" />
<glyph unicode="&#x26;" d="M100 250v300l150 150l-150 150v300l250 250h950l100 -200h-1000l-100 -100v-200l100 -100h800v-200h-800l-100 -100v-200l100 -100h900l100 100v500h200v-550l-250 -250h-1000z" />
<glyph unicode="'" horiz-adv-x="400" d="M100 900v500h200v-450z" />
<glyph unicode="(" horiz-adv-x="900" d="M100 250v900l250 250h350l100 -200h-400l-100 -100v-800l100 -100h400l-100 -200h-350z" />
<glyph unicode=")" horiz-adv-x="900" d="M100 200h400l100 100v800l-100 100h-400l100 200h350l250 -250v-900l-250 -250h-350z" />
<glyph unicode="*" horiz-adv-x="863" d="M100 915l198 135l-198 135l84 124l172 -117v208h150v-209l173 118l84 -124l-199 -135l199 -135l-84 -124l-173 118v-209h-150v208l-172 -117z" />
<glyph unicode="+" horiz-adv-x="1100" d="M100 600v200h350v350h200v-350h350v-200h-350v-350h-200v350h-350z" />
<glyph unicode="," horiz-adv-x="400" d="M100 200h200v-450l-200 -50v500z" />
<glyph unicode="-" horiz-adv-x="1100" d="M100 600v200h900v-200h-900z" />
<glyph unicode="." horiz-adv-x="400" d="M100 0v200h200v-200h-200z" />
<glyph unicode="/" horiz-adv-x="900" d="M100 0l480 1400h220l-480 -1400h-220z" />
<glyph unicode="0" d="M100 250v900l250 250h1000l250 -250v-900l-250 -250h-1000zM300 300l950 900h-850l-100 -100v-800zM450 200h850l100 100v800z" />
<glyph unicode="1" horiz-adv-x="700" d="M100 1200l100 200h400v-1400h-200v1200h-300z" />
<glyph unicode="2" d="M100 0v550l250 250h950l100 100v200l-100 100h-1200l100 200h1150l250 -250v-300l-250 -250h-950l-100 -100v-300h1300v-200h-1500z" />
<glyph unicode="3" d="M100 200h1200l100 100v200l-100 100h-1200v200h1200l100 100v200l-100 100h-1200l100 200h1150l250 -250v-300l-150 -150l150 -150v-300l-250 -250h-1150z" />
<glyph unicode="4" d="M100 850v550h200v-500l100 -100h1000v600h200v-1400h-200v600h-1050z" />
<glyph unicode="5" d="M100 200h1200l100 100v200l-100 100h-1200v800h1500v-200h-1300v-400h1050l250 -250v-300l-250 -250h-1150z" />
<glyph unicode="6" d="M100 250v900l250 250h1150l100 -200h-1200l-100 -100v-800l100 -100h900l100 100v200l-100 100h-900v200h950l250 -250v-300l-250 -250h-1000z" />
<glyph unicode="7" d="M100 0l1230 1200h-1230l100 200h1400v-200l-1230 -1200h-270z" />
<glyph unicode="8" d="M100 250v300l150 150l-150 150v300l250 250h1000l250 -250v-300l-150 -150l150 -150v-300l-250 -250h-1000zM300 300l100 -100h900l100 100v200l-100 100h-900l-100 -100v-200zM300 900l100 -100h900l100 100v200l-100 100h-900l-100 -100v-200z" />
<glyph unicode="9" d="M100 200h1200l100 100v800l-100 100h-900l-100 -100v-200l100 -100h900v-200h-950l-250 250v300l250 250h1000l250 -250v-900l-250 -250h-1150z" />
<glyph unicode=":" horiz-adv-x="400" d="M100 0v200h200v-200h-200zM100 900v200h200v-200h-200z" />
<glyph unicode=";" horiz-adv-x="400" d="M100 200h200v-450l-200 -50v500zM100 900v200h200v-200h-200z" />
<glyph unicode="&#x3c;" horiz-adv-x="1100" d="M100 600v200l900 400v-230l-670 -270l670 -270v-230z" />
<glyph unicode="=" horiz-adv-x="1100" d="M100 300v200h900v-200h-900zM100 900v200h900v-200h-900z" />
<glyph unicode="&#x3e;" horiz-adv-x="1100" d="M100 200v230l670 270l-670 270v230l900 -400v-200z" />
<glyph unicode="?" d="M100 1200l100 200h1150l250 -250v-300l-250 -250h-650l-100 -100v-100h-200v150l250 250h650l100 100v200l-100 100h-1200zM400 0v200h200v-200h-200z" />
<glyph unicode="@" horiz-adv-x="1701" d="M100 250v900l250 250h1000l250 -250v-550l-250 -250h-320v530h-300l-60 -60v-250l50 -50h210v-170h-280l-150 150v400l150 150h550v-520h100l100 100v470l-100 100h-900l-100 -100v-800l100 -100h1201l-101 -200h-1150z" />
<glyph unicode="A" d="M100 0v1100l700 300h100l700 -300v-1100h-200v500h-1000v200h1000v280l-500 200h-100l-500 -200v-980h-200z" />
<glyph unicode="B" d="M100 0v1400h1220l250 -250v-300l-135 -135l165 -165v-300l-250 -250h-1250zM300 200h1000l100 100v200l-100 100h-900v200h870l100 100v200l-100 100h-970v-1000z" />
<glyph unicode="C" d="M100 250v900l250 250h1150l100 -200h-1200l-100 -100v-800l100 -100h1200l-100 -200h-1150z" />
<glyph unicode="D" d="M100 0v1400h1250l250 -250v-900l-250 -250h-1250zM300 200h1000l100 100v800l-100 100h-1000v-1000z" />
<glyph unicode="E" d="M100 250v900l250 250h1150l100 -200h-1200l-100 -100v-300h1300v-200h-1300v-300l100 -100h1200l-100 -200h-1150z" />
<glyph unicode="F" d="M100 0v1150l250 250h1150l100 -200h-1200l-100 -100v-300h1300v-200h-1300v-600h-200z" />
<glyph unicode="G" d="M100 250v900l250 250h1150l100 -200h-1200l-100 -100v-800l100 -100h900l100 100v300h-600v200l800 1v-551l-250 -250h-1000z" />
<glyph unicode="H" d="M100 0v1400h200v-600h1100v600h200v-1400h-200v600h-1100v-600h-200z" />
<glyph unicode="I" horiz-adv-x="400" d="M100 0v1400h200v-1400h-200z" />
<glyph unicode="J" d="M100 200h1200l100 100v1100h200v-1150l-250 -250h-1150z" />
<glyph unicode="K" d="M100 0v1400h200v-600h700l380 600h220l-380 -600h130l250 -250v-550h-200v500l-100 100h-1000v-600h-200z" />
<glyph unicode="L" d="M100 250v1150h200v-1100l100 -100h1200l-100 -200h-1150z" />
<glyph unicode="M" horiz-adv-x="1900" d="M100 0v1150l250 250h1200l250 -250v-1150h-200v1100l-100 100h-450v-1200h-200v1200h-450l-100 -100v-1100h-200z" />
<glyph unicode="N" d="M100 0v1150l250 250h1000l250 -250v-1150h-200v1100l-100 100h-900l-100 -100v-1100h-200z" />
<glyph unicode="O" d="M100 250v900l250 250h1000l250 -250v-900l-250 -250h-1000zM300 300l100 -100h900l100 100v800l-100 100h-900l-100 -100v-800z" />
<glyph unicode="P" d="M100 0v1400h1250l250 -250v-400l-250 -250h-950v200h900l100 100v300l-100 100h-1000v-1200h-200z" />
<glyph unicode="Q" d="M100 250v900l250 250h1000l250 -250v-900l-217 -217l117 -233h-200l-100 200h-850zM300 300l100 -100h700l-100 200h200l100 -200l100 100v800l-100 100h-900l-100 -100v-800z" />
<glyph unicode="R" d="M100 0v1400h1250l250 -250v-400l-150 -150l150 -150v-450h-200v400l-100 100h-900v200h900l100 100v300l-100 100h-1000v-1200h-200z" />
<glyph unicode="S" d="M100 200h1200l100 100v200l-100 100h-950l-250 250v300l250 250h1150l100 -200h-1200l-100 -100v-200l100 -100h950l250 -250v-300l-250 -250h-1150z" />
<glyph unicode="T" d="M100 1200v200h1500v-200h-650v-1200h-200v1200h-650z" />
<glyph unicode="U" d="M100 250v1150h200v-1100l100 -100h900l100 100v1100h200v-1150l-250 -250h-1000z" />
<glyph unicode="V" d="M100 300v1100h200v-980l500 -200h100l500 200v980h200v-1100l-700 -300h-100z" />
<glyph unicode="W" horiz-adv-x="1900" d="M100 250v1150h200v-1100l100 -100h450v1200h200v-1200h450l100 100v1100h200v-1150l-250 -250h-1200z" />
<glyph unicode="X" d="M100 0l625 700l-625 700h250l500 -560l500 560h250l-625 -700l625 -700h-250l-500 560l-500 -560h-250z" />
<glyph unicode="Y" d="M100 800v600h200v-480l500 -200h100l500 200v480h200v-600l-650 -279v-521h-200v521z" />
<glyph unicode="Z" d="M100 0v200l1200 1000h-1200v200h1500v-200l-1200 -1000h1200v-200h-1500z" />
<glyph unicode="[" horiz-adv-x="900" d="M100 0v1400h600l100 -200h-500v-1000h500l-100 -200h-600z" />
<glyph unicode="\" horiz-adv-x="900" d="M100 1400h220l480 -1400h-220z" />
<glyph unicode="]" horiz-adv-x="900" d="M100 200h500v1000h-500l100 200h600v-1400h-600z" />
<glyph unicode="^" horiz-adv-x="1100" d="M100 800l370 600h160l370 -600h-230l-220 400l-220 -400h-230z" />
<glyph unicode="_" horiz-adv-x="900" d="M0 -200h900v-200h-900v200z" />
<glyph unicode="`" horiz-adv-x="600" d="M100 1550h210l190 -300h-210z" />
<glyph unicode="a" horiz-adv-x="1500" d="M100 250v150l250 250h750v-200h-700l-100 -100v-50l100 -100h700l100 100v500l-100 100h-900l100 200h850l250 -250v-600l-250 -250h-800z" />
<glyph unicode="b" horiz-adv-x="1500" d="M100 250v1150h200v-1100l100 -100h700l100 100v500l-100 100h-700v200h750l250 -250v-600l-250 -250h-800z" />
<glyph unicode="c" horiz-adv-x="1500" d="M100 250v600l250 250h950l100 -200h-1000l-100 -100v-500l100 -100h1000l-100 -200h-950z" />
<glyph unicode="d" horiz-adv-x="1500" d="M100 250v600l250 250h750v-200h-700l-100 -100v-500l100 -100h700l100 100v1100h200v-1150l-250 -250h-800z" />
<glyph unicode="e" horiz-adv-x="1500" d="M100 250v600l250 250h800l250 -250v-150l-250 -250h-750v200h700l100 100v50l-100 100h-700l-100 -100v-500l100 -100h900l-100 -200h-850z" />
<glyph unicode="f" horiz-adv-x="1200" d="M100 800v200h200v150l250 250h450l100 -200h-500l-100 -100v-100h600v-200h-600v-800h-200v800h-200z" />
<glyph unicode="g" horiz-adv-x="1500" d="M100 700v150l250 250h800l250 -250v-600l-250 -250h-850l-100 200h900l100 100v500l-100 100h-700l-100 -100v-50l100 -100h700v-200h-750z" />
<glyph unicode="h" horiz-adv-x="1500" d="M100 0v1400h200v-300h850l250 -250v-850h-200v800l-100 100h-800v-900h-200z" />
<glyph unicode="i" horiz-adv-x="400" d="M100 0v1000h200v-1000h-200zM100 1200v200h200v-200h-200z" />
<glyph unicode="j" horiz-adv-x="1200" d="M100 200h700l100 100v700h200v-750l-250 -250h-650zM900 1200v200h200v-200h-200z" />
<glyph unicode="k" horiz-adv-x="1500" d="M100 0v1400h200v-700h600l280 400h220l-280 -400h30l250 -250v-450h-200v400l-100 100h-800v-500h-200z" />
<glyph unicode="l" horiz-adv-x="400" d="M100 0v1400h200v-1400h-200z" />
<glyph unicode="m" d="M100 0v850l250 250h1000l250 -250v-850h-200v800l-100 100h-350v-900h-200v900h-350l-100 -100v-800h-200z" />
<glyph unicode="n" horiz-adv-x="1500" d="M100 0v850l250 250h800l250 -250v-850h-200v800l-100 100h-700l-100 -100v-800h-200z" />
<glyph unicode="o" horiz-adv-x="1500" d="M100 250v600l250 250h800l250 -250v-600l-250 -250h-800zM300 300l100 -100h700l100 100v500l-100 100h-700l-100 -100v-500z" />
<glyph unicode="p" horiz-adv-x="1500" d="M100 0v850l250 250h800l250 -250v-300l-250 -250h-750v200h700l100 100v200l-100 100h-700l-100 -100v-800h-200z" />
<glyph unicode="q" horiz-adv-x="1500" d="M100 550v300l250 250h800l250 -250v-850h-200v800l-100 100h-700l-100 -100v-200l100 -100h700v-200h-750z" />
<glyph unicode="r" horiz-adv-x="1200" d="M100 0v850l250 250h650l100 -200h-700l-100 -100v-800h-200z" />
<glyph unicode="s" horiz-adv-x="1500" d="M100 200h1000l100 100v50l-100 100h-750l-250 250v150l250 250h950l100 -200h-1000l-100 -100v-50l100 -100h750l250 -250v-150l-250 -250h-950z" />
<glyph unicode="t" horiz-adv-x="1200" d="M100 900v200h200v200l200 100v-300h600v-200h-600v-600l100 -100h500l-100 -200h-450l-250 250v650h-200z" />
<glyph unicode="u" horiz-adv-x="1500" d="M100 250v850h200v-800l100 -100h700l100 100v800h200v-850l-250 -250h-800z" />
<glyph unicode="v" horiz-adv-x="1500" d="M100 300v800h200v-680l400 -200h100l400 200v680h200v-800l-600 -300h-100z" />
<glyph unicode="w" d="M100 250v850h200v-800l100 -100h350v900h200v-900h350l100 100v800h200v-850l-250 -250h-1000z" />
<glyph unicode="x" horiz-adv-x="1500" d="M100 0l525 550l-525 550h250l400 -419l400 419h250l-525 -550l525 -550h-250l-400 419l-400 -419h-250z" />
<glyph unicode="y" horiz-adv-x="1500" d="M100 700v400h200v-350l100 -100h800v450h200v-850l-250 -250h-850l-100 200h900l100 100v150h-850z" />
<glyph unicode="z" horiz-adv-x="1500" d="M100 0v200l970 700h-970v200h1300v-200l-970 -700h970v-200h-1300z" />
<glyph unicode="{" horiz-adv-x="1400" d="M100 600v200h400l100 100v250l250 250h350l100 -200h-400l-100 -100v-250l-150 -150l150 -150v-250l100 -100h400l-100 -200h-350l-250 250v250l-100 100h-400z" />
<glyph unicode="|" horiz-adv-x="400" d="M100 0v1400h200v-1400h-200z" />
<glyph unicode="}" horiz-adv-x="1400" d="M100 200h400l100 100v250l150 150l-150 150v250l-100 100h-400l100 200h350l250 -250v-250l100 -100h400v-200h-400l-100 -100v-250l-250 -250h-350z" />
<glyph unicode="~" horiz-adv-x="1300" d="M100 500v150l250 250h220l200 -200h130l100 100v100h200v-150l-250 -250h-230l-200 200h-120l-100 -100v-100h-200z" />
<glyph unicode="&#xa1;" horiz-adv-x="400" d="M100 -300v1000h200v-1000h-200zM100 900v200h200v-200h-200z" />
<glyph unicode="&#xa2;" horiz-adv-x="1500" d="M100 550v600l250 250h400v200h200v-200h350l100 -200h-450v-700h450l-100 -200h-350v-200h-200v200h-400zM300 600l100 -100h350v700h-350l-100 -100v-500z" />
<glyph unicode="&#xa3;" d="M100 0v200h200v400h-200v200h200v350l250 250h750l100 -200h-800l-100 -100v-300h700v-200h-700v-400h800l100 100v100h200v-150l-250 -250h-1250z" />
<glyph unicode="&#xa5;" d="M100 800v600h200v-480l500 -200h100l500 200v480h200v-600l-650 -279v-21h450v-150h-450v-100h450v-150h-450v-100h-200v100h-450v150h450v100h-450v150h450v21z" />
<glyph unicode="&#xa6;" horiz-adv-x="400" d="M100 0v600h200v-600h-200zM100 800v600h200v-600h-200z" />
<glyph unicode="&#xa8;" horiz-adv-x="800" d="M100 1250v200h200v-200h-200zM500 1250v200h200v-200h-200z" />
<glyph unicode="&#xa9;" d="M100 250v900l250 250h1000l250 -250v-900l-250 -250h-1000zM300 300l100 -100h900l100 100v800l-100 100h-900l-100 -100v-800zM500 500v400l150 150h450l100 -170h-470l-60 -60v-250l50 -50h480l-100 -170h-450z" />
<glyph unicode="&#xab;" horiz-adv-x="1100" d="M100 600v200l400 400v-250l-250 -250l250 -250v-250zM600 600v200l400 400v-250l-250 -250l250 -250v-250z" />
<glyph unicode="&#xac;" horiz-adv-x="1100" d="M100 600v200h900v-550h-200v350h-700z" />
<glyph unicode="&#xad;" horiz-adv-x="1100" d="M100 600v200h900v-200h-900z" />
<glyph unicode="&#xae;" d="M100 250v900l250 250h1000l250 -250v-900l-250 -250h-1000zM300 300l100 -100h900l100 100v800l-100 100h-900l-100 -100v-800zM500 350v700h550l150 -150v-190l-80 -80l80 -80v-210h-170v150l-60 60h-300v-200h-170zM670 720h310l50 50v50l-60 60h-300v-160z" />
<glyph unicode="&#xb0;" horiz-adv-x="1000" d="M100 850v300l250 250h300l250 -250v-300l-250 -250h-300zM300 900l100 -100h200l100 100v200l-100 100h-200l-100 -100v-200z" />
<glyph unicode="&#xb1;" horiz-adv-x="1100" d="M100 0v200h900v-200h-900zM100 650v200h350v350h200v-350h350v-200h-350v-350h-200v350h-350z" />
<glyph unicode="&#xb4;" horiz-adv-x="600" d="M100 1250l190 300h210l-190 -300h-210z" />
<glyph unicode="&#xb5;" horiz-adv-x="1500" d="M100 0v1100h200v-650h800l100 100v550h200v-600l-250 -250h-850v-250h-200z" />
<glyph unicode="&#xb6;" d="M100 750v400l250 250h1250v-1400h-200v1200h-300v-1200h-200v500h-550z" />
<glyph unicode="&#xb7;" horiz-adv-x="400" d="M100 600v200h200v-200h-200z" />
<glyph unicode="&#xb8;" horiz-adv-x="600" d="M100 -450l190 300h210l-190 -300h-210z" />
<glyph unicode="&#xbb;" horiz-adv-x="1100" d="M100 200v250l250 250l-250 250v250l400 -400v-200zM600 200v250l250 250l-250 250v250l400 -400v-200z" />
<glyph unicode="&#xbf;" d="M100 -50v300l250 250h650l100 100v100h200v-150l-250 -250h-650l-100 -100v-200l100 -100h1200l-100 -200h-1150zM1100 900v200h200v-200h-200z" />
<glyph unicode="&#xc0;" d="M100 0v1100l700 300h100l700 -300v-1100h-200v500h-1000v200h1000v280l-500 200h-100l-500 -200v-980h-200zM583 1850h210l190 -300h-210z" />
<glyph unicode="&#xc1;" d="M100 0v1100l700 300h100l700 -300v-1100h-200v500h-1000v200h1000v280l-500 200h-100l-500 -200v-980h-200zM717 1550l190 300h210l-190 -300h-210z" />
<glyph unicode="&#xc2;" d="M100 0v1100l700 300h100l700 -300v-1100h-200v500h-1000v200h1000v280l-500 200h-100l-500 -200v-980h-200zM500 1550l220 300h260l220 -300h-230l-120 200l-120 -200h-230z" />
<glyph unicode="&#xc3;" d="M100 0v1100l700 300h100l700 -300v-1100h-200v500h-1000v200h1000v280l-500 200h-100l-500 -200v-980h-200zM365 1550v150l200 200h220l180 -180h120l80 80v100h170v-150l-200 -200h-218l-2 -4l-180 184h-120l-80 -80v-100h-170z" />
<glyph unicode="&#xc4;" d="M100 0v1100l700 300h100l700 -300v-1100h-200v500h-1000v200h1000v280l-500 200h-100l-500 -200v-980h-200zM550 1550v200h200v-200h-200zM950 1550v200h200v-200h-200z" />
<glyph unicode="&#xc5;" d="M100 0v1100l700 300h100l700 -300v-1100h-200v500h-1000v200h1000v280l-500 200h-100l-500 -200v-980h-200zM575 1700v200l150 150h250l150 -150v-200l-150 -150h-250zM725 1750l50 -50h150l50 50v100l-50 50h-150l-50 -50v-100z" />
<glyph unicode="&#xc6;" horiz-adv-x="3000" d="M100 0v1100l700 300h100l525 -225l225 225h1150l100 -200h-1200l-100 -100v-300h1300v-200h-1300v-300l100 -100h1200l-100 -200h-1150l-250 250v250h-1000v200h1000v280l-500 200h-100l-500 -200v-980h-200z" />
<glyph unicode="&#xc7;" d="M100 250v900l250 250h1150l100 -200h-1200l-100 -100v-800l100 -100h1200l-100 -200h-1150zM650 -450l190 300h210l-190 -300h-210z" />
<glyph unicode="&#xc8;" d="M100 250v900l250 250h1150l100 -200h-1200l-100 -100v-300h1300v-200h-1300v-300l100 -100h1200l-100 -200h-1150zM583 1850h210l190 -300h-210z" />
<glyph unicode="&#xc9;" d="M100 250v900l250 250h1150l100 -200h-1200l-100 -100v-300h1300v-200h-1300v-300l100 -100h1200l-100 -200h-1150zM717 1550l190 300h210l-190 -300h-210z" />
<glyph unicode="&#xca;" d="M100 250v900l250 250h1150l100 -200h-1200l-100 -100v-300h1300v-200h-1300v-300l100 -100h1200l-100 -200h-1150zM500 1550l220 300h260l220 -300h-230l-120 200l-120 -200h-230z" />
<glyph unicode="&#xcb;" d="M100 250v900l250 250h1150l100 -200h-1200l-100 -100v-300h1300v-200h-1300v-300l100 -100h1200l-100 -200h-1150zM550 1550v200h200v-200h-200zM950 1550v200h200v-200h-200z" />
<glyph unicode="&#xcc;" horiz-adv-x="600" d="M100 1850h210l190 -300h-210zM267 0v1400h200v-1400h-200z" />
<glyph unicode="&#xcd;" horiz-adv-x="600" d="M100 1550l190 300h210l-190 -300h-210zM133 0v1400h200v-1400h-200z" />
<glyph unicode="&#xce;" horiz-adv-x="900" d="M100 1550l220 300h260l220 -300h-230l-120 200l-120 -200h-230zM350 0v1400h200v-1400h-200z" />
<glyph unicode="&#xcf;" horiz-adv-x="800" d="M100 1550v200h200v-200h-200zM300 0v1400h200v-1400h-200zM500 1550v200h200v-200h-200z" />
<glyph unicode="&#xd0;" horiz-adv-x="1900" d="M100 600v200h200v600h1250l250 -250v-900l-250 -250h-1250v600h-200zM500 200h1000l100 100v800l-100 100h-1000v-400h600v-200h-600v-400z" />
<glyph unicode="&#xd1;" d="M100 0v1150l250 250h1000l250 -250v-1150h-200v1100l-100 100h-900l-100 -100v-1100h-200zM365 1550v150l200 200h220l180 -180h120l80 80v100h170v-150l-200 -200h-218l-2 -4l-180 184h-120l-80 -80v-100h-170z" />
<glyph unicode="&#xd2;" d="M100 250v900l250 250h1000l250 -250v-900l-250 -250h-1000zM300 300l100 -100h900l100 100v800l-100 100h-900l-100 -100v-800zM583 1850h210l190 -300h-210z" />
<glyph unicode="&#xd3;" d="M100 250v900l250 250h1000l250 -250v-900l-250 -250h-1000zM300 300l100 -100h900l100 100v800l-100 100h-900l-100 -100v-800zM717 1550l190 300h210l-190 -300h-210z" />
<glyph unicode="&#xd4;" d="M100 250v900l250 250h1000l250 -250v-900l-250 -250h-1000zM300 300l100 -100h900l100 100v800l-100 100h-900l-100 -100v-800zM500 1550l220 300h260l220 -300h-230l-120 200l-120 -200h-230z" />
<glyph unicode="&#xd5;" d="M100 250v900l250 250h1000l250 -250v-900l-250 -250h-1000zM300 300l100 -100h900l100 100v800l-100 100h-900l-100 -100v-800zM365 1550v150l200 200h220l180 -180h120l80 80v100h170v-150l-200 -200h-218l-2 -4l-180 184h-120l-80 -80v-100h-170z" />
<glyph unicode="&#xd6;" d="M100 250v900l250 250h1000l250 -250v-900l-250 -250h-1000zM300 300l100 -100h900l100 100v800l-100 100h-900l-100 -100v-800zM550 1550v200h200v-200h-200zM950 1550v200h200v-200h-200z" />
<glyph unicode="&#xd7;" horiz-adv-x="958" d="M100 442l257 257l-257 257l122 122l256 -258l258 258l122 -121l-258 -258l258 -258l-121 -121l-259 257l-257 -257z" />
<glyph unicode="&#xd8;" d="M100 250v900l250 250h1000l250 -250v-900l-250 -250h-1000zM300 300l950 900h-850l-100 -100v-800zM450 200h850l100 100v800z" />
<glyph unicode="&#xd9;" d="M100 250v1150h200v-1100l100 -100h900l100 100v1100h200v-1150l-250 -250h-1000zM583 1850h210l190 -300h-210z" />
<glyph unicode="&#xda;" d="M100 250v1150h200v-1100l100 -100h900l100 100v1100h200v-1150l-250 -250h-1000zM717 1550l190 300h210l-190 -300h-210z" />
<glyph unicode="&#xdb;" d="M100 250v1150h200v-1100l100 -100h900l100 100v1100h200v-1150l-250 -250h-1000zM500 1550l220 300h260l220 -300h-230l-120 200l-120 -200h-230z" />
<glyph unicode="&#xdc;" d="M100 250v1150h200v-1100l100 -100h900l100 100v1100h200v-1150l-250 -250h-1000zM550 1550v200h200v-200h-200zM950 1550v200h200v-200h-200z" />
<glyph unicode="&#xdd;" d="M100 800v600h200v-480l500 -200h100l500 200v480h200v-600l-650 -279v-521h-200v521zM717 1550l190 300h210l-190 -300h-210z" />
<glyph unicode="&#xde;" d="M100 0v1400h200v-250h1050l250 -250v-400l-250 -250h-950v200h900l100 100v300l-100 100h-1000v-950h-200z" />
<glyph unicode="&#xdf;" d="M100 0v1150l250 250h970l250 -250v-300l-135 -135l165 -165v-300l-250 -250h-950v200h900l100 100v200l-100 100h-900v200h870l100 100v200l-100 100h-870l-100 -100v-1100h-200z" />
<glyph unicode="&#xe0;" horiz-adv-x="1500" d="M100 250v150l250 250h750v-200h-700l-100 -100v-50l100 -100h700l100 100v500l-100 100h-900l100 200h850l250 -250v-600l-250 -250h-800zM483 1550h210l190 -300h-210z" />
<glyph unicode="&#xe1;" horiz-adv-x="1500" d="M100 250v150l250 250h750v-200h-700l-100 -100v-50l100 -100h700l100 100v500l-100 100h-900l100 200h850l250 -250v-600l-250 -250h-800zM617 1250l190 300h210l-190 -300h-210z" />
<glyph unicode="&#xe2;" horiz-adv-x="1500" d="M100 250v150l250 250h750v-200h-700l-100 -100v-50l100 -100h700l100 100v500l-100 100h-900l100 200h850l250 -250v-600l-250 -250h-800zM400 1250l220 300h260l220 -300h-230l-120 200l-120 -200h-230z" />
<glyph unicode="&#xe3;" horiz-adv-x="1500" d="M100 250v150l250 250h750v-200h-700l-100 -100v-50l100 -100h700l100 100v500l-100 100h-900l100 200h850l250 -250v-600l-250 -250h-800zM265 1250v150l200 200h220l180 -180h120l80 80v100h170v-150l-200 -200h-218l-2 -4l-180 184h-120l-80 -80v-100h-170z" />
<glyph unicode="&#xe4;" horiz-adv-x="1500" d="M100 250v150l250 250h750v-200h-700l-100 -100v-50l100 -100h700l100 100v500l-100 100h-900l100 200h850l250 -250v-600l-250 -250h-800zM450 1250v200h200v-200h-200zM850 1250v200h200v-200h-200z" />
<glyph unicode="&#xe5;" horiz-adv-x="1500" d="M100 250v150l250 250h750v-200h-700l-100 -100v-50l100 -100h700l100 100v500l-100 100h-900l100 200h850l250 -250v-600l-250 -250h-800zM475 1400v200l150 150h250l150 -150v-200l-150 -150h-250zM625 1450l50 -50h150l50 50v100l-50 50h-150l-50 -50v-100z" />
<glyph unicode="&#xe6;" horiz-adv-x="2600" d="M100 250v150l250 250h750v-200h-700l-100 -100v-50l100 -100h700l100 100v500l-100 100h-900l100 200h850l150 -150l150 150h800l250 -250v-150l-250 -250h-750v200h700l100 100v50l-100 100h-700l-100 -100v-500l100 -100h900l-100 -200h-850l-150 150l-150 -150h-800z " />
<glyph unicode="&#xe7;" horiz-adv-x="1500" d="M100 250v600l250 250h950l100 -200h-1000l-100 -100v-500l100 -100h1000l-100 -200h-950zM550 -450l190 300h210l-190 -300h-210z" />
<glyph unicode="&#xe8;" horiz-adv-x="1500" d="M100 250v600l250 250h800l250 -250v-150l-250 -250h-750v200h700l100 100v50l-100 100h-700l-100 -100v-500l100 -100h900l-100 -200h-850zM483 1550h210l190 -300h-210z" />
<glyph unicode="&#xe9;" horiz-adv-x="1500" d="M100 250v600l250 250h800l250 -250v-150l-250 -250h-750v200h700l100 100v50l-100 100h-700l-100 -100v-500l100 -100h900l-100 -200h-850zM617 1250l190 300h210l-190 -300h-210z" />
<glyph unicode="&#xea;" horiz-adv-x="1500" d="M100 250v600l250 250h800l250 -250v-150l-250 -250h-750v200h700l100 100v50l-100 100h-700l-100 -100v-500l100 -100h900l-100 -200h-850zM400 1250l220 300h260l220 -300h-230l-120 200l-120 -200h-230z" />
<glyph unicode="&#xeb;" horiz-adv-x="1500" d="M100 250v600l250 250h800l250 -250v-150l-250 -250h-750v200h700l100 100v50l-100 100h-700l-100 -100v-500l100 -100h900l-100 -200h-850zM450 1250v200h200v-200h-200zM850 1250v200h200v-200h-200z" />
<glyph unicode="&#xec;" horiz-adv-x="600" d="M100 1550h210l190 -300h-210zM267 0v1100h200v-1100h-200z" />
<glyph unicode="&#xed;" horiz-adv-x="600" d="M100 1250l190 300h210l-190 -300h-210zM133 0v1100h200v-1100h-200z" />
<glyph unicode="&#xee;" horiz-adv-x="900" d="M100 1250l220 300h260l220 -300h-230l-120 200l-120 -200h-230zM350 0v1100h200v-1100h-200z" />
<glyph unicode="&#xef;" horiz-adv-x="800" d="M100 1250v200h200v-200h-200zM300 0v1100h200v-1100h-200zM500 1250v200h200v-200h-200z" />
<glyph unicode="&#xf0;" d="M100 250v400l250 250h750v-200h-700l-100 -100v-300l100 -100h700l100 100v800h-600v150h600v150h200v-150h200v-150h-200v-850l-250 -250h-800z" />
<glyph unicode="&#xf1;" horiz-adv-x="1500" d="M100 0v850l250 250h800l250 -250v-850h-200v800l-100 100h-700l-100 -100v-800h-200zM265 1250v150l200 200h220l180 -180h120l80 80v100h170v-150l-200 -200h-218l-2 -4l-180 184h-120l-80 -80v-100h-170z" />
<glyph unicode="&#xf2;" horiz-adv-x="1500" d="M100 250v600l250 250h800l250 -250v-600l-250 -250h-800zM300 300l100 -100h700l100 100v500l-100 100h-700l-100 -100v-500zM483 1550h210l190 -300h-210z" />
<glyph unicode="&#xf3;" horiz-adv-x="1500" d="M100 250v600l250 250h800l250 -250v-600l-250 -250h-800zM300 300l100 -100h700l100 100v500l-100 100h-700l-100 -100v-500zM617 1250l190 300h210l-190 -300h-210z" />
<glyph unicode="&#xf4;" horiz-adv-x="1500" d="M100 250v600l250 250h800l250 -250v-600l-250 -250h-800zM300 300l100 -100h700l100 100v500l-100 100h-700l-100 -100v-500zM400 1250l220 300h260l220 -300h-230l-120 200l-120 -200h-230z" />
<glyph unicode="&#xf5;" horiz-adv-x="1500" d="M100 250v600l250 250h800l250 -250v-600l-250 -250h-800zM265 1250v150l200 200h220l180 -180h120l80 80v100h170v-150l-200 -200h-218l-2 -4l-180 184h-120l-80 -80v-100h-170zM300 300l100 -100h700l100 100v500l-100 100h-700l-100 -100v-500z" />
<glyph unicode="&#xf6;" horiz-adv-x="1500" d="M100 250v600l250 250h800l250 -250v-600l-250 -250h-800zM300 300l100 -100h700l100 100v500l-100 100h-700l-100 -100v-500zM450 1250v200h200v-200h-200zM850 1250v200h200v-200h-200z" />
<glyph unicode="&#xf7;" horiz-adv-x="1100" d="M100 600v200h900v-200h-900zM450 150v200h200v-200h-200zM450 1050v200h200v-200h-200z" />
<glyph unicode="&#xf8;" horiz-adv-x="1500" d="M100 250v600l250 250h800l250 -250v-600l-250 -250h-800zM300 300l3 -4l707 604h-610l-100 -100v-500zM470 200h630l100 100v500l-13 12z" />
<glyph unicode="&#xf9;" horiz-adv-x="1500" d="M100 250v850h200v-800l100 -100h700l100 100v800h200v-850l-250 -250h-800zM483 1550h210l190 -300h-210z" />
<glyph unicode="&#xfa;" horiz-adv-x="1500" d="M100 250v850h200v-800l100 -100h700l100 100v800h200v-850l-250 -250h-800zM617 1250l190 300h210l-190 -300h-210z" />
<glyph unicode="&#xfb;" horiz-adv-x="1500" d="M100 250v850h200v-800l100 -100h700l100 100v800h200v-850l-250 -250h-800zM400 1250l220 300h260l220 -300h-230l-120 200l-120 -200h-230z" />
<glyph unicode="&#xfc;" horiz-adv-x="1500" d="M100 250v850h200v-800l100 -100h700l100 100v800h200v-850l-250 -250h-800zM450 1250v200h200v-200h-200zM850 1250v200h200v-200h-200z" />
<glyph unicode="&#xfd;" horiz-adv-x="1500" d="M100 700v400h200v-350l100 -100h800v450h200v-850l-250 -250h-850l-100 200h900l100 100v150h-850zM617 1250l190 300h210l-190 -300h-210z" />
<glyph unicode="&#xfe;" horiz-adv-x="1500" d="M100 0v1400h200v-300h850l250 -250v-300l-250 -250h-750v200h700l100 100v200l-100 100h-800v-900h-200z" />
<glyph unicode="&#xff;" horiz-adv-x="1500" d="M100 700v400h200v-350l100 -100h800v450h200v-850l-250 -250h-850l-100 200h900l100 100v150h-850zM450 1250v200h200v-200h-200zM850 1250v200h200v-200h-200z" />
<glyph unicode="&#x152;" horiz-adv-x="3000" d="M100 250v900l250 250h1000l150 -150l150 150h1150l100 -200h-1200l-100 -100v-300h1300v-200h-1300v-300l100 -100h1200l-100 -200h-1150l-150 150l-150 -150h-1000zM300 300l100 -100h900l100 100v800l-100 100h-900l-100 -100v-800z" />
<glyph unicode="&#x153;" horiz-adv-x="2600" d="M100 250v600l250 250h800l150 -150l150 150h800l250 -250v-150l-250 -250h-750v200h700l100 100v50l-100 100h-700l-100 -100v-500l100 -100h900l-100 -200h-850l-150 150l-150 -150h-800zM300 300l100 -100h700l100 100v500l-100 100h-700l-100 -100v-500z" />
<glyph unicode="&#x178;" d="M100 800v600h200v-480l500 -200h100l500 200v480h200v-600l-650 -279v-521h-200v521zM550 1550v200h200v-200h-200zM950 1550v200h200v-200h-200z" />
<glyph unicode="&#x2c6;" horiz-adv-x="900" d="M100 1250l220 300h260l220 -300h-230l-120 200l-120 -200h-230z" />
<glyph unicode="&#x2dc;" horiz-adv-x="1170" d="M100 1250v150l200 200h220l180 -180h120l80 80v100h170v-150l-200 -200h-218l-2 -4l-180 184h-120l-80 -80v-100h-170z" />
<glyph unicode="&#x2000;" horiz-adv-x="1025" />
<glyph unicode="&#x2001;" horiz-adv-x="2050" />
<glyph unicode="&#x2002;" horiz-adv-x="1025" />
<glyph unicode="&#x2003;" horiz-adv-x="2050" />
<glyph unicode="&#x2004;" horiz-adv-x="683" />
<glyph unicode="&#x2005;" horiz-adv-x="512" />
<glyph unicode="&#x2006;" horiz-adv-x="341" />
<glyph unicode="&#x2007;" horiz-adv-x="341" />
<glyph unicode="&#x2008;" horiz-adv-x="256" />
<glyph unicode="&#x2009;" horiz-adv-x="410" />
<glyph unicode="&#x200a;" horiz-adv-x="113" />
<glyph unicode="&#x2010;" horiz-adv-x="1100" d="M100 600v200h900v-200h-900z" />
<glyph unicode="&#x2011;" horiz-adv-x="1100" d="M100 600v200h900v-200h-900z" />
<glyph unicode="&#x2012;" horiz-adv-x="1100" d="M100 600v200h900v-200h-900z" />
<glyph unicode="&#x2013;" horiz-adv-x="1100" d="M100 600v200h900v-200h-900z" />
<glyph unicode="&#x2014;" horiz-adv-x="1500" d="M100 600v200h1300v-200h-1300z" />
<glyph unicode="&#x2018;" horiz-adv-x="400" d="M100 950v450h200v-500z" />
<glyph unicode="&#x2019;" horiz-adv-x="400" d="M100 900v500h200v-450z" />
<glyph unicode="&#x201a;" horiz-adv-x="400" d="M100 200h200v-450l-200 -50v500z" />
<glyph unicode="&#x201c;" horiz-adv-x="800" d="M100 950v450h200v-500zM500 950v450h200v-500z" />
<glyph unicode="&#x201d;" horiz-adv-x="800" d="M100 900v500h200v-450zM500 900v500h200v-450z" />
<glyph unicode="&#x201e;" horiz-adv-x="800" d="M100 200h200v-450l-200 -50v500zM500 200h200v-450l-200 -50v500z" />
<glyph unicode="&#x2022;" horiz-adv-x="600" d="M100 500v400h400v-400h-400z" />
<glyph unicode="&#x2026;" horiz-adv-x="1200" d="M100 0v200h200v-200h-200zM500 0v200h200v-200h-200zM900 0v200h200v-200h-200z" />
<glyph unicode="&#x202f;" horiz-adv-x="410" />
<glyph unicode="&#x2039;" horiz-adv-x="600" d="M100 600v200l400 400v-250l-250 -250l250 -250v-250z" />
<glyph unicode="&#x203a;" horiz-adv-x="600" d="M100 200v250l250 250l-250 250v250l400 -400v-200z" />
<glyph unicode="&#x205f;" horiz-adv-x="512" />
<glyph unicode="&#x20ac;" d="M100 400v200h200v200h-200v200h200v150l250 250h950l100 -200h-1000l-100 -100v-100h798l-66 -200h-732v-200h667l-65 -200h-602v-100l100 -100h1000l-100 -200h-950l-250 250v150h-200z" />
<glyph unicode="&#x2122;" horiz-adv-x="2050" d="M100 1220v180h800v-180h-315v-520h-170v520h-315zM1050 700v550l150 150h600l150 -150v-550h-160v470l-60 60h-145v-530h-170v530h-145l-50 -50v-480h-170z" />
<glyph unicode="&#x25fc;" horiz-adv-x="1100" d="M0 0v1100h1100v-1100h-1100z" />
</font>
</defs>
</svg>
